<svg width="30" height="30" viewBox="0 0 30 30" fill="none" xmlns="http://www.w3.org/2000/svg">
<g clip-path="url(#clip0_237_184)">
<rect x="0.22171" y="12.7522" width="17.0738" height="17.0738" fill="#7595FD"/>
<path d="M13.6368 7.87395H17.2954L21.3078 3.84942C21.4211 3.73511 21.556 3.64439 21.7046 3.58247C21.8532 3.52055 22.0126 3.48868 22.1736 3.48868C22.3346 3.48868 22.494 3.52055 22.6427 3.58247C22.7913 3.64439 22.9262 3.73511 23.0395 3.84942L26.186 7.00806C26.4131 7.23656 26.5406 7.54566 26.5406 7.86785C26.5406 8.19004 26.4131 8.49914 26.186 8.72763L23.3932 11.5326H13.6368V13.9717C13.6368 14.2952 13.5083 14.6054 13.2796 14.8341C13.0509 15.0628 12.7407 15.1913 12.4172 15.1913C12.0938 15.1913 11.7836 15.0628 11.5549 14.8341C11.3261 14.6054 11.1977 14.2952 11.1977 13.9717V10.3131C11.1977 9.66616 11.4546 9.04577 11.9121 8.58834C12.3695 8.13092 12.9899 7.87395 13.6368 7.87395ZM6.31944 13.9717V18.8499L3.52666 21.6427C3.29952 21.8712 3.17203 22.1803 3.17203 22.5025C3.17203 22.8247 3.29952 23.1338 3.52666 23.3623L6.67311 26.5209C6.78649 26.6352 6.92137 26.726 7.06998 26.7879C7.2186 26.8498 7.378 26.8817 7.539 26.8817C7.69999 26.8817 7.85939 26.8498 8.00801 26.7879C8.15662 26.726 8.29151 26.6352 8.40488 26.5209L13.6368 21.289H18.515C18.8384 21.289 19.1486 21.1605 19.3773 20.9318C19.606 20.7031 19.7345 20.3929 19.7345 20.0695V18.8499H20.9541C21.2775 18.8499 21.5877 18.7214 21.8164 18.4927C22.0452 18.264 22.1736 17.9538 22.1736 17.6304V16.4108H23.3932C23.7166 16.4108 24.0268 16.2823 24.2556 16.0536C24.4843 15.8249 24.6127 15.5147 24.6127 15.1913V13.9717H16.0759V15.1913C16.0759 15.8382 15.8189 16.4586 15.3615 16.916C14.9041 17.3734 14.2837 17.6304 13.6368 17.6304H11.1977C10.5508 17.6304 9.93037 17.3734 9.47295 16.916C9.01553 16.4586 8.75855 15.8382 8.75855 15.1913V11.5326L6.31944 13.9717Z" fill="#292E3D"/>
</g>
<defs>
<clipPath id="clip0_237_184">
<rect width="29.2693" height="29.2693" fill="white" transform="translate(0.22171 0.55661)"/>
</clipPath>
</defs>
</svg>
