<svg width="28" height="28" viewBox="0 0 28 28" fill="none" xmlns="http://www.w3.org/2000/svg">
<path d="M25.2994 8.85197C25.9463 8.85197 26.5667 9.10895 27.0241 9.56637C27.4816 10.0238 27.7385 10.6442 27.7385 11.2911V16.1693C27.7385 16.8162 27.4816 17.4366 27.0241 17.894C26.5667 18.3514 25.9463 18.6084 25.2994 18.6084H24.0043C23.7069 20.9662 22.5594 23.1344 20.777 24.7062C18.9946 26.2779 16.6999 27.1452 14.3234 27.1453V24.7062C16.2641 24.7062 18.1253 23.9352 19.4976 22.563C20.8698 21.1907 21.6408 19.3295 21.6408 17.3888V10.0715C21.6408 8.13085 20.8698 6.26966 19.4976 4.8974C18.1253 3.52513 16.2641 2.7542 14.3234 2.7542C12.3828 2.7542 10.5216 3.52513 9.14932 4.8974C7.77705 6.26966 7.00612 8.13085 7.00612 10.0715V18.6084H3.34746C2.70057 18.6084 2.08018 18.3514 1.62275 17.894C1.16533 17.4366 0.908356 16.8162 0.908356 16.1693V11.2911C0.908356 10.6442 1.16533 10.0238 1.62275 9.56637C2.08018 9.10895 2.70057 8.85197 3.34746 8.85197H4.64263C4.94024 6.49444 6.0879 4.32654 7.87027 2.75503C9.65264 1.18351 11.9472 0.316406 14.3234 0.316406C16.6997 0.316406 18.9943 1.18351 20.7766 2.75503C22.559 4.32654 23.7067 6.49444 24.0043 8.85197H25.2994ZM9.15254 18.3462L10.4453 16.2778C11.6076 17.0059 12.9519 17.3911 14.3234 17.3888C15.695 17.3911 17.0393 17.0059 18.2016 16.2778L19.4944 18.3462C17.9446 19.3171 16.1522 19.8308 14.3234 19.828C12.4947 19.8308 10.7023 19.3171 9.15254 18.3462Z" fill="#F9995D"/>
</svg>
