<svg width="30" height="30" viewBox="0 0 30 30" fill="none" xmlns="http://www.w3.org/2000/svg">
<path d="M26.9639 20.9011L20.1954 14.1326L22.1101 12.2179L17.5367 7.64459L15.622 9.55929L8.85353 2.79077L3.08504 8.55926L9.85356 15.3278L4.04848 21.1329V25.7062H8.62181L14.4269 19.9011L21.1954 26.6696L26.9639 20.9011V20.9011ZM11.5853 13.596L6.53637 8.55926L8.85353 6.24211L10.4024 7.79094L8.95109 9.24221L10.6707 10.9618L12.1219 9.51051L13.8903 11.2789L11.5853 13.596V13.596ZM16.1587 18.1693L18.4758 15.8522L20.2442 17.6205L18.7929 19.0718L20.5125 20.7914L21.9637 19.3401L23.5126 20.8889L21.1954 23.2061L16.1587 18.1693V18.1693ZM18.8453 6.34333L21.9406 3.24688L26.5114 7.81777L23.4162 10.9142L18.8453 6.34333Z" fill="#F9995D"/>
</svg>
